<?xml version="1.0" standalone="no"?>
<!DOCTYPE svg PUBLIC "-//W3C//DTD SVG 20010904//EN"
 "http://www.w3.org/TR/2001/REC-SVG-20010904/DTD/svg10.dtd">
<svg version="1.0" xmlns="http://www.w3.org/2000/svg"
 width="671.000000pt" height="221.000000pt" viewBox="0 0 671.000000 221.000000"
 preserveAspectRatio="xMidYMid meet">

<g transform="translate(0.000000,221.000000) scale(0.100000,-0.100000)"
fill="#ffb142" stroke="none">
<path d="M795 2151 c-394 -75 -598 -221 -672 -482 -16 -58 -18 -111 -18 -589
0 -574 1 -584 59 -695 87 -169 260 -263 579 -315 339 -55 825 -22 1175 82 l72
21 0 538 0 539 -405 0 -405 0 0 -160 0 -160 170 0 170 0 -2 -247 -3 -248 -80
-18 c-181 -40 -477 -31 -635 18 -98 31 -151 70 -181 132 l-24 48 0 480 c0 470
0 481 21 525 57 120 176 179 402 200 206 19 632 -12 880 -65 40 -8 75 -15 78
-15 2 0 4 83 4 185 0 102 -3 185 -7 185 -5 0 -35 5 -69 10 -186 30 -359 42
-674 46 -298 3 -346 1 -435 -15z"/>
<path d="M3514 2124 c3 -9 141 -453 307 -987 165 -535 307 -993 315 -1020 l16
-47 242 0 243 0 166 613 c92 336 183 674 203 750 21 75 40 137 44 137 3 0 91
-323 194 -717 104 -395 193 -733 198 -751 l9 -32 242 0 243 0 331 1033 331
1032 -246 3 c-135 1 -247 1 -249 -1 -2 -3 -86 -340 -186 -750 -101 -411 -185
-749 -188 -752 -3 -2 -95 307 -204 688 -109 380 -206 720 -217 755 l-19 62
-229 0 c-209 0 -229 -1 -234 -17 -4 -13 -276 -1038 -387 -1457 -6 -21 -12 -36
-15 -33 -2 2 -92 334 -199 738 -108 404 -198 742 -201 752 -5 16 -26 17 -261
17 -229 0 -255 -2 -249 -16z"/>
<path d="M2530 1840 l0 -220 -160 0 -160 0 0 -145 0 -145 160 0 160 0 0 -453
c0 -481 3 -514 50 -608 86 -168 301 -241 658 -224 79 3 150 9 158 12 11 4 14
33 14 142 l0 136 -152 0 c-173 0 -204 10 -243 75 -19 34 -20 53 -23 478 l-3
442 211 0 210 0 0 145 0 145 -210 0 -210 0 0 220 0 220 -230 0 -230 0 0 -220z"/>
</g>
</svg>
