<?xml version="1.0" standalone="no"?>
<!DOCTYPE svg PUBLIC "-//W3C//DTD SVG 20010904//EN"
 "http://www.w3.org/TR/2001/REC-SVG-20010904/DTD/svg10.dtd">
<svg version="1.0" xmlns="http://www.w3.org/2000/svg"
 width="671.000000pt" height="221.000000pt" viewBox="0 0 671.000000 221.000000"
 preserveAspectRatio="xMidYMid meet">

<g transform="translate(0.000000,221.000000) scale(0.100000,-0.100000)"
fill="#ffb142" stroke="none">
<path d="M0 1105 l0 -1105 3355 0 3355 0 0 1105 0 1105 -3355 0 -3355 0 0
-1105z m1620 1049 c148 -13 273 -29 333 -40 l27 -6 0 -184 c0 -101 -4 -184 -9
-184 -5 0 -51 9 -102 19 -212 44 -352 56 -649 56 -309 0 -348 -5 -467 -61 -62
-30 -125 -97 -141 -152 -9 -28 -12 -178 -12 -513 0 -439 2 -477 19 -515 56
-122 221 -178 536 -178 146 -1 252 12 348 40 16 5 17 26 17 250 l0 244 -170 0
-170 0 0 160 0 160 410 0 410 0 -2 -537 -3 -538 -65 -22 c-86 -29 -275 -67
-435 -89 -181 -25 -588 -26 -730 -1 -261 44 -434 115 -526 215 -68 74 -106
143 -124 229 -21 100 -21 1027 0 1128 38 182 153 325 328 409 142 68 325 114
517 130 86 7 506 -5 660 -20z m2561 -604 c87 -327 177 -667 200 -754 32 -118
45 -154 51 -140 7 16 398 1481 398 1491 0 2 104 2 232 1 l231 -3 216 -752
c118 -414 218 -749 222 -745 3 4 77 297 163 652 87 355 169 691 183 748 l25
102 249 0 c137 0 249 -3 249 -6 0 -3 -148 -468 -330 -1034 -181 -566 -330
-1032 -330 -1035 0 -3 -111 -4 -247 -3 l-248 3 -197 745 c-108 410 -197 747
-198 750 -1 4 -75 -266 -386 -1403 l-27 -97 -245 2 -246 3 -318 1025 c-175
564 -318 1031 -318 1038 0 10 55 12 256 10 l257 -3 158 -595z m-1191 295 l0
-225 210 0 210 0 0 -145 0 -145 -210 0 -211 0 3 -437 c3 -503 2 -493 86 -535
43 -21 61 -23 190 -22 l142 0 0 -142 0 -142 -127 -7 c-391 -23 -610 45 -698
215 -58 114 -59 117 -63 613 l-3 457 -155 0 -154 0 0 145 0 145 155 0 155 0 0
218 c0 120 3 222 7 225 3 4 109 7 235 7 l228 0 0 -225z"/>
</g>
</svg>
